
nColumns=19
nRows=74
DataType=double
version=3
OpenSimVersion=4.4-2022-10-11-798caa840
endheader
time	ground_force_calcn_r_vx	ground_force_calcn_r_vy	ground_force_calcn_r_vz	ground_force_calcn_r_px	ground_force_calcn_r_py	ground_force_calcn_r_pz	ground_force_calcn_r_mx	ground_force_calcn_r_my	ground_force_calcn_r_mz	ground_force_calcn_l_vx	ground_force_calcn_l_vy	ground_force_calcn_l_vz	ground_force_calcn_l_px	ground_force_calcn_l_py	ground_force_calcn_l_pz	ground_force_calcn_l_mx	ground_force_calcn_l_my	ground_force_calcn_l_mz
0	-45.4858	274.876	14.7943	0.0989008	0	-0.228936	-0.001172	0.00708254	0.000381194	0	0	0	0	0	0	0	0	0
0.01	-55.8753	302.562	12.6995	0.103577	0	-0.228226	-0.008325310000000001	0.0450811	0.0018922	0	0	0	0	0	0	0	0	0
0.02	-66.9127	333.881	10.0841	0.10906	0	-0.227269	-0.0186282	0.09295100000000001	0.00280737	0	0	0	0	0	0	0	0	0
0.03	-78.2341	368.232	6.91914	0.114418	0	-0.226193	-0.0315271	0.148391	0.0027883	0	0	0	0	0	0	0	0	0
0.04	-89.4442	404.802	3.2214	0.119552	0	-0.225034	-0.0459661	0.208031	0.00165551	0	0	0	0	0	0	0	0	0
0.05	-100.122	442.601	-0.929127	0.124394	0	-0.223831	-0.0610904	0.270058	-0.000566918	0	0	0	0	0	0	0	0	0
0.06	-109.851	480.502	-5.3856	0.128899	0	-0.222621	-0.0766512	0.335283	-0.00375794	0	0	0	0	0	0	0	0	0
0.07000000000000001	-118.256	517.346	-9.959059999999999	0.133046	0	-0.221442	-0.09250940000000001	0.40471	-0.00779078	0	0	0	0	0	0	0	0	0
0.08	-125.046	552.0700000000001	-14.4623	0.136837	0	-0.220309	-0.107941	0.476553	-0.012484	0	0	0	0	0	0	0	0	0
0.09	-130.029	583.76	-18.7249	0.140295	0	-0.21923	-0.121829	0.546949	-0.0175441	0	0	0	0	0	0	0	0	0
0.1	-133.108	611.638	-22.595	0.143453	0	-0.218204	-0.133098	0.6115930000000001	-0.0225934	0	0	0	0	0	0	0	0	0
0.11	-134.274	635.057	-25.9544	0.146355	0	-0.217224	-0.140768	0.66577	-0.0272096	0	0	0	0	0	0	0	0	0
0.12	-133.601	653.518	-28.7296	0.149047	0	-0.216275	-0.144036	0.704561	-0.0309736	0	0	0	0	0	0	0	0	0
0.13	-131.223	666.676	-30.8887	0.15158	0	-0.215341	-0.142497	0.723953	-0.0335425	0	0	0	0	0	0	0	0	0
0.14	-127.326	674.357	-32.4345	0.154	0	-0.214405	-0.136237	0.7215549999999999	-0.0347046	0	0	0	0	0	0	0	0	0
0.15	-122.128	676.5839999999999	-33.4039	0.156354	0	-0.213445	-0.125715	0.696457	-0.034385	0	0	0	0	0	0	0	0	0
0.16	-115.869	673.585	-33.8581	0.15868	0	-0.212445	-0.1117	0.649347	-0.0326398	0	0	0	0	0	0	0	0	0
0.17	-108.797	665.784	-33.8725	0.16101	0	-0.211387	-0.095193	0.5825360000000001	-0.0296371	0	0	0	0	0	0	0	0	0
0.18	-101.156	653.785	-33.528	0.163376	0	-0.210256	-0.0772895	0.499533	-0.0256175	0	0	0	0	0	0	0	0	0
0.19	-93.1812	638.327	-32.9055	0.165801	0	-0.20904	-0.0590603	0.404585	-0.0208562	0	0	0	0	0	0	0	0	0
0.2	-85.0908	620.245	-32.0803	0.16831	0	-0.20773	-0.0414542	0.302169	-0.0156288	0	0	0	0	0	0	0	0	0
0.21	-77.0814	600.418	-31.1207	0.170924	0	-0.206321	-0.025207	0.196347	-0.010177	0	0	0	0	0	0	0	0	0
0.22	-69.32389999999999	579.726	-30.0866	0.17366	0	-0.204813	-0.0107797	0.0901462	-0.0046784	0	0	0	0	0	0	0	0	0
0.23	-61.9599	559	-29.0315	0.176534	0	-0.203211	0.00163097	-0.0147145	0.000764194	0	0	0	0	0	0	0	0	0
0.24	-55.0992	538.9930000000001	-28.0016	0.179552	0	-0.201525	0.0120398	-0.117776	0.00611869	0	0	0	0	0	0	0	0	0
0.25	-48.8161	520.354	-27.0364	0.182709	0	-0.199772	0.0206162	-0.219758	0.0114181	0	0	0	0	0	0	0	0	0
0.26	-43.1466	503.613	-26.1672	0.185991	0	-0.197977	0.0276172	-0.322352	0.0167491	0	0	0	0	0	0	0	0	0
0.27	-38.0865	489.182	-25.4177	0.189364	0	-0.196173	0.033326	-0.428038	0.0222407	0	0	0	0	0	0	0	0	0
0.28	-33.5941	477.36	-24.8035	0.192784	0	-0.194401	0.0379826	-0.539718	0.0280437	0	0	0	0	0	0	0	0	0
0.29	-29.5957	468.342	-24.3335	0.196194	0	-0.192702	0.0417289	-0.660346	0.0343094	0	0	0	0	0	0	0	0	0
0.3	-25.9924	462.238	-24.0108	0.199537	0	-0.191121	0.0445741	-0.792689	0.041176	0	0	0	0	0	0	0	0	0
0.31	-22.6675	459.077	-23.8354	0.202755	0	-0.189695	0.046369	-0.939094	0.0487581	0	0	0	0	0	0	0	0	0
0.32	-19.496	458.828	-23.8062	0.205809	0	-0.188452	0.0467952	-1.1013	0.0571406	0	0	0	0	0	0	0	0	0
0.33	-16.3519	461.408	-23.9212	0.208675	0	-0.187411	0.0453671	-1.28014	0.0663677	0	0	0	0	0	0	0	0	0
0.34	-13.1166	466.69	-24.1784	0.211353	0	-0.186577	0.0414698	-1.4755	0.0764432	0	0	0	0	0	0	0	0	0
0.35	-9.685840000000001	474.517	-24.5742	0.213867	0	-0.185944	0.0344204	-1.68628	0.0873287	0	0	0	0	0	0	0	0	0
0.36	-5.97433	484.702	-25.1011	0.216257	0	-0.185494	0.0235467	-1.91037	0.0989314	0	0	0	0	0	0	0	0	0
0.37	-1.91941	497.027	-25.7462	0.218575	0	-0.185204	0.00828111	-2.14437	0.111079	0	0	0	0	0	0	0	0	0
0.38	2.5178	511.234	-26.4889	0.220879	0	-0.185045	-0.0117396	-2.38369	0.123508	0	0	0	0	0	0	0	0	0
0.39	7.35434	527.03	-27.301	0.223224	0	-0.18499	-0.0365946	-2.62246	0.135848	0	0	0	0	0	0	0	0	0
0.4	12.5895	544.081	-28.1475	0.225658	0	-0.185009	-0.0660285	-2.85357	0.147627	0	0	0	0	0	0	0	0	0
0.41	18.2076	562.015	-28.9887	0.228218	0	-0.185076	-0.09942289999999999	-3.06889	0.158294	0	0	0	0	0	0	0	0	0
0.42	24.1809	580.413	-29.7838	0.230924	0	-0.185166	-0.135807	-3.25977	0.167274	0	0	0	0	0	0	0	0	0
0.43	30.4717	598.813	-30.4934	0.233785	0	-0.185261	-0.173896	-3.41732	0.17402	0	0	0	0	0	0	0	0	0
0.44	37.0323	616.7089999999999	-31.0814	0.236796	0	-0.185345	-0.212157	-3.53311	0.178065	0	0	0	0	0	0	0	0	0
0.45	43.8067	633.5599999999999	-31.5138	0.23994	0	-0.185405	-0.24892	-3.60004	0.179069	0	0	0	0	0	0	0	0	0
0.46	50.7326	648.809	-31.7579	0.243193	0	-0.185433	-0.282524	-3.61314	0.176856	0	0	0	0	0	0	0	0	0
0.47	57.7445	661.893	-31.7811	0.246525	0	-0.185429	-0.311458	-3.57007	0.171418	0	0	0	0	0	0	0	0	0
0.48	64.77370000000001	672.261	-31.5522	0.249904	0	-0.185392	-0.334482	-3.47145	0.16293	0	0	0	0	0	0	0	0	0
0.49	71.7465	679.38	-31.0431	0.253296	0	-0.185327	-0.350692	-3.32076	0.151736	0	0	0	0	0	0	0	0	0
0.5	78.5779	682.749	-30.2312	0.256673	0	-0.18524	-0.35953	-3.12389	0.138321	0.692322	22.4955	-5.52873	0.689091	0	-0.22361	0.00686211	0.22297	-0.0547993
0.51	85.1653	681.915	-29.1012	0.260009	0	-0.185138	-0.360752	-2.88853	0.12327	-0.822457	37.4175	-6.66923	0.727559	0	-0.24061	-0.00728362	0.331367	-0.0590622
0.52	91.38290000000001	676.482	-27.6459	0.263283	0	-0.185026	-0.354412	-2.62361	0.107219	-3.03307	55.6889	-7.92155	0.748575	0	-0.249173	-0.0215691	0.396022	-0.0563327
0.53	97.0772	666.128	-25.867	0.266482	0	-0.184908	-0.340837	-2.33877	0.0908187	-6.06971	77.36199999999999	-9.238950000000001	0.762419	0	-0.254206	-0.0346332	0.441421	-0.0527166
0.54	102.068	650.6130000000001	-23.7781	0.269599	0	-0.184788	-0.320626	-2.04376	0.074694	-10.062	102.289	-10.5479	0.772708	0	-0.257488	-0.0467293	0.475044	-0.0489859
0.55	106.156	629.8049999999999	-21.407	0.272634	0	-0.184666	-0.294671	-1.74823	0.0594224	-15.0947	130.193	-11.743	0.781045	0	-0.259826	-0.0578083	0.4986	-0.0449724
0.5600000000000001	109.127	603.704	-18.7992	0.275593	0	-0.184542	-0.264139	-1.46125	0.0455029	-21.1489	160.774	-12.6963	0.788206	0	-0.261642	-0.0673589	0.512063	-0.0404375
0.57	110.769	572.461	-16.0214	0.278488	0	-0.184412	-0.23036	-1.19051	0.0333187	-28.1182	193.721	-13.2738	0.794575	0	-0.263173	-0.0747382	0.51491	-0.0352817
0.58	110.888	536.4	-13.1604	0.281336	0	-0.184269	-0.194705	-0.94185	0.023108	-35.8212	228.683	-13.3574	0.800333	0	-0.264548	-0.07933220000000001	0.506457	-0.0295823
0.59	109.332	496.032	-10.3166	0.28416	0	-0.184106	-0.158517	-0.719182	0.0149577	-43.9944	265.245	-12.8654	0.80555	0	-0.265834	-0.08054119999999999	0.485588	-0.023553
0.6	106.009	452.064	-7.59435	0.28699	0	-0.183914	-0.123083	-0.524875	0.008817520000000001	-52.3089	302.896	-11.7682	0.810254	0	-0.267062	-0.0777989	0.450496	-0.0175029
0.61	100.911	405.399	-5.09288	0.289862	0	-0.183682	-0.0895952	-0.359938	0.00452177	-60.4189	341.064	-10.0917	0.81447	0	-0.268244	-0.0707911	0.399615	-0.0118242
0.62	94.13939999999999	357.116	-2.89479	0.292822	0	-0.183403	-0.0591245	-0.224287	0.00181808	-68.0102	379.177	-7.90686	0.818232	0	-0.269389	-0.0597904	0.333349	-0.00695122
0.63	85.9111	308.42	-1.05749	0.295929	0	-0.183069	-0.0325356	-0.116803	0.000400485	-74.8145	416.696	-5.31577	0.821583	0	-0.270497	-0.0457421	0.254771	-0.0032501
0.64	76.5551	260.578	0.390409	0.299259	0	-0.182666	-0.0102778	-0.0349834	-5.24137e-05	-80.61490000000001	453.098	-2.44072	0.824576	0	-0.271573	-0.0300598	0.168952	-0.000910097
0.65	66.4945	214.801	1.45155	0.302922	0	-0.182172	0.00761707	0.0246059	0.000166278	-85.2525	487.853	0.588982	0.827263	0	-0.272619	-0.0143641	0.0821977	9.9237e-05
0.66	56.1986	172.158	2.15631	0.307085	0	-0.181549	0.0214606	0.0657422	0.000823429	-88.6361	520.423	3.65265	0.829705	0	-0.273638	-0.0002567	0.00150721	1.05785e-05
0.67	46.123	133.488	2.55607	0.312029	0	-0.18072	0.031745	0.09187579999999999	0.00175926	-90.738	550.266	6.65005	0.831966	0	-0.274637	0.0109285	-0.06627420000000001	-0.000800934
0.68	36.6528	99.3627	2.71321	0.318279	0	-0.179547	0.039026	0.105796	0.00288888	-91.586	576.835	9.50103	0.834107	0	-0.275624	0.0183433	-0.115531	-0.00190291
0.6899999999999999	28.0716	70.08110000000001	2.68939	0.326914	0	-0.177745	0.0438404	0.109448	0.00420011	-91.2548	599.612	12.1429	0.836187	0	-0.276605	0.0216713	-0.142396	-0.00288372
0.7	20.5578	45.6881	2.54032	0.340515	0	-0.174633	0.046494	0.103329	0.00574525	-89.8515	618.147	14.5263	0.838256	0	-0.277588	0.0210783	-0.145011	-0.00340772
0.71	14.1907	26.0011	2.31263	0.367035	0	-0.168157	0.0458958	0.084093	0.00747952	-87.5026	632.112	16.6099	0.840357	0	-0.278575	0.0170873	-0.123437	-0.00324355
0.72	0	0	0	0	0	0	0	0	0	-84.34699999999999	641.3339999999999	18.3584	0.8425280000000001	0	-0.279566	0.0104178	-0.079212	-0.00226746
0.73	0	0	0	0	0	0	0	0	0	-80.5299	645.819	19.7416	0.844804	0	-0.280563	0.00183076	-0.014682	-0.000448804
